# xmcd
#
# Track frame offsets:
#	150
#	9853
#	20578
#	33590
#	44053
#	59578
#	72665
#	80615
#	89109
#	100265
#	112078
#	132515
#	142865
#	152878
#	165403
#	180853
#	192553
#
# Disc length: 2697 seconds
#
# Revision: 0
# Processed by: cddbd v1.5.2PL0 Copyright (c) Steve Scherf et al.
# Submitted via: EasyCDDAExtractor 16.0.8.1
#
DISCID=f30a8711
DTITLE=Rockin' Around Portugal #2
DYEAR=2016
DGENRE=Rockabilly
TTITLE0=Carl and The Rythm All Stars - Slipped my Mouth
TTITLE1=A.J. and The Rockin' Trio - Hot Rockin' Mama
TTITLE2=Lola Lola - Follow me to the Sea
TTITLE3=The Wine a Billy Rollers - Red Wine Blue Heart
TTITLE4=T. Perry and The Bombers - Let's Bop
TTITLE5=The Casket Kings - Mans' Ruin
TTITLE6=Nelson Carrera - Who's Gonna Love me Now
TTITLE7=Portuguese Pedro - She Sure Can Rock Me
TTITLE8=Barny and The Rythm All Stars - I Don't Want to Be Like You
TTITLE9=The Dixie Boys - The Cheater
TTITLE10=Cool Cat Club - Cow Girl of the Night
TTITLE11=Texabilly Rockets - I'm Running
TTITLE12=Joe Brew and The Six Pack Two - Spilled Beer
TTITLE13=No Smoking on Board - Hot Rod Cruisin'
TTITLE14=Supra Heat Surrenders - Trouble and Joy
TTITLE15=Devil Devine and The Sinners - Mercy
TTITLE16=Carl and The Rythm All Stars - Sad Day
EXTD=
EXTT0=
EXTT1=
EXTT2=
EXTT3=
EXTT4=
EXTT5=
EXTT6=
EXTT7=
EXTT8=
EXTT9=
EXTT10=
EXTT11=
EXTT12=
EXTT13=
EXTT14=
EXTT15=
EXTT16=
PLAYORDER=
